<?xml version="1.0" encoding="iso-8859-1"?>
<!-- Generator: Adobe Illustrator 19.0.0, SVG Export Plug-In . SVG Version: 6.00 Build 0)  -->
<svg version="1.1" id="Capa_1" xmlns="http://www.w3.org/2000/svg" xmlns:xlink="http://www.w3.org/1999/xlink" x="0px" y="0px"
	 viewBox="0 0 433.874 433.874" style="enable-background:new 0 0 433.874 433.874;" xml:space="preserve">
<g>
	<g>
		<path d="M411.683,310.194l-8.464-8.464c-24.92-24.92-65.472-24.92-90.392,0c-12.184,12.184-30.744,15.2-46.168,7.496
			c-61.048-30.52-111.488-80.96-142.008-142.008c-7.712-15.432-4.696-33.984,7.496-46.168c24.92-24.92,24.92-65.472,0-90.392
			l-8.464-8.464c-29.576-29.592-77.736-29.592-107.312,0C3.795,34.77-2.077,52.698,0.667,70.17
			c7.504,47.696,34.064,141.696,127.704,235.336s187.64,120.2,235.336,127.704c2.832,0.448,5.68,0.664,8.512,0.664
			c14.632-0.008,28.928-5.832,39.464-16.368C441.267,387.922,441.267,339.778,411.683,310.194z M400.379,406.202
			c-8.968,8.968-21.68,13.2-34.176,11.2c-45.776-7.192-136.072-32.768-226.504-123.2S23.675,113.458,16.483,67.682
			c-1.952-12.432,2.232-25.208,11.2-34.176c11.672-11.672,27.008-17.504,42.344-17.504s30.672,5.832,42.344,17.504l8.464,8.464
			c18.68,18.68,18.68,49.088,0,67.768c-17.064,17.064-21.28,43.04-10.496,64.64c32.064,64.128,85.04,117.104,149.168,149.168
			c21.584,10.784,47.568,6.568,64.64-10.496c18.688-18.688,49.08-18.688,67.768,0l8.464,8.464
			C423.723,344.866,423.723,382.85,400.379,406.202z"/>
	</g>
</g>
<g>
	<g>
		<path d="M77.203,168.322C32.163,76.434,44.227,49.274,44.803,48.09c2.256-3.6,1.304-8.376-2.224-10.824
			c-3.64-2.512-8.616-1.608-11.136,2.024c-3.456,4.984-18.168,34.984,31.4,136.08c1.384,2.84,4.232,4.48,7.192,4.48
			c1.176,0,2.384-0.256,3.512-0.824C77.515,177.09,79.147,172.29,77.203,168.322z"/>
	</g>
</g>
<g>
	<g>
		<path d="M230.027,163.85c-22.056,0-40,17.944-40,40c0,22.056,17.944,40,40,40c22.056,0,40-17.944,40-40
			C270.027,181.794,252.083,163.85,230.027,163.85z M230.027,227.85c-13.232,0-24-10.768-24-24s10.768-24,24-24s24,10.768,24,24
			S243.259,227.85,230.027,227.85z"/>
	</g>
</g>
<g>
	<g>
		<path d="M230.027,131.85c-4.424,0-8,3.576-8,8s3.576,8,8,8c30.872,0,56,25.128,56,56c0,4.424,3.576,8,8,8s8-3.576,8-8
			C302.027,164.146,269.731,131.85,230.027,131.85z"/>
	</g>
</g>
<g>
	<g>
		<path d="M230.027,99.85c-4.424,0-8,3.576-8,8s3.576,8,8,8c48.52,0,88,39.48,88,88c0,4.424,3.576,8,8,8s8-3.576,8-8
			C334.027,146.506,287.371,99.85,230.027,99.85z"/>
	</g>
</g>
<g>
	<g>
		<path d="M230.027,67.85c-4.424,0-8,3.576-8,8s3.576,8,8,8c66.168,0,120,53.832,120,120c0,4.424,3.576,8,8,8s8-3.576,8-8
			C366.027,128.858,305.019,67.85,230.027,67.85z"/>
	</g>
</g>
<g>
	<g>
		<path d="M230.027,35.85c-4.424,0-8,3.576-8,8s3.576,8,8,8c83.816,0,152,68.184,152,152c0,4.424,3.576,8,8,8s8-3.576,8-8
			C398.027,111.218,322.659,35.85,230.027,35.85z"/>
	</g>
</g>
<g>
</g>
<g>
</g>
<g>
</g>
<g>
</g>
<g>
</g>
<g>
</g>
<g>
</g>
<g>
</g>
<g>
</g>
<g>
</g>
<g>
</g>
<g>
</g>
<g>
</g>
<g>
</g>
<g>
</g>
</svg>
