<?xml version="1.0"?>
<svg xmlns="http://www.w3.org/2000/svg" xmlns:xlink="http://www.w3.org/1999/xlink" xmlns:svgjs="http://svgjs.com/svgjs" version="1.1" width="512" height="512" x="0" y="0" viewBox="0 0 512 512" style="enable-background:new 0 0 512 512" xml:space="preserve"><g><path xmlns="http://www.w3.org/2000/svg" d="M64.0001,231.99365V472a8.00039,8.00039,0,0,0,8,8h136a8.00039,8.00039,0,0,0,8-8V456a8.00024,8.00024,0,0,0-4.42188-7.15527L184.0001,435.05566V216h104a32.03667,32.03667,0,0,0,32-32v-8a8.00039,8.00039,0,0,0-8-8H293.7667l-6.17676-18.53027A8.00026,8.00026,0,0,0,280.0001,144h-12V126.82935a28.04533,28.04533,0,0,0,20-26.82935V80a8.00039,8.00039,0,0,0-8-8h-40a8.00039,8.00039,0,0,0-8,8v20a28.04533,28.04533,0,0,0,20,26.82935V144h-12a8.00028,8.00028,0,0,0-7.58985,5.46973L226.2335,168h-2.2334V128a8.00235,8.00235,0,0,0-2.34277-5.65723L208.0001,108.68652V72a8.00039,8.00039,0,0,0-8-8h-24a8.00039,8.00039,0,0,0-8,8V88h-16V67.31445l2.34375-2.34375A19.31423,19.31423,0,0,0,140.68662,32H128.0001a24.0275,24.0275,0,0,0-24,24V88h-26.335a39.80821,39.80821,0,0,0-37.13867,25.14453l-21.0752,52.68652a48.24429,48.24429,0,0,0,44.54883,66.1626ZM248.0001,100V88h24v12a12,12,0,0,1-24,0Zm-120,88.28125,16.53808-11.02539A7.45779,7.45779,0,0,1,148.68662,176a3.31318,3.31318,0,0,1,2.34278,5.65625l-4.68653,4.68652a8.00073,8.00073,0,0,0,1.21973,12.31348L166.922,211.56348A2.42171,2.42171,0,0,1,165.57822,216H128.0001ZM165.57822,232a18.3914,18.3914,0,0,0,2.42188-.17822V433.44141L143.569,438.32764l-7.57666-166.69092a7.99994,7.99994,0,0,0-7.79395-7.63379c-.06738-.00195-.13476-.00293-.20117-.00293a8,8,0,0,0-7.96094,7.24121L104.6,433.32129,80.0001,438.24146V232ZM127.57529,438.84375l-7.09082-3.5459,4.69141-49.25879ZM136.0001,464h-56v-9.44141l30.87744-6.17553,25.12256,12.56128Zm64-3.05566V464h-48v-8a7.974,7.974,0,0,0-.57153-2.92725l23.449-4.68969ZM288.0001,200H178.01817a18.48673,18.48673,0,0,0-2.2212-1.75l-11.44629-7.63086A19.0939,19.0939,0,0,0,167.42466,184H304.0001A16.01833,16.01833,0,0,1,288.0001,200Zm-42.23438-40h28.46875l2.66626,8H243.09946Zm-77.76562,8V141.78564l16.03125,9.16065a8.00091,8.00091,0,0,0,7.9375,0l16.03125-9.16065V168Zm34.93677-41.74927-14.93677,8.5354-14.93677-8.5354,8.594-8.5935A8.00235,8.00235,0,0,0,184.0001,112v-8h8v8a8.00235,8.00235,0,0,0,2.34277,5.65723ZM192.0001,80v8h-8V80Zm-64-32h12.68652a3.31318,3.31318,0,0,1,2.34278,5.65625L140.68565,56H120.0001A8.00917,8.00917,0,0,1,128.0001,48Zm-8,27.31348L123.31358,72H136.0001v8a8,8,0,0,1-16,0Zm15.10058,27.61377-7.10058,10.65087-7.10059-10.65087a24.03594,24.03594,0,0,0,14.20117,0Zm-29.75683,5.51025,16,24a7.99959,7.99959,0,0,0,13.3125,0l16-24A8.00221,8.00221,0,0,0,152.0001,104h16v4.68652l-13.65723,13.65625A8.00235,8.00235,0,0,0,152.0001,128v32.30518A19.30067,19.30067,0,0,0,148.68662,160a23.40064,23.40064,0,0,0-13.02344,3.94336L117.57822,176H80.0001V104h24A8.00221,8.00221,0,0,0,105.34385,108.4375ZM34.30674,171.77344l21.07519-52.6875a23.95474,23.95474,0,0,1,8.61817-10.83545V176h-8v16h56v24h-47.751a32.24931,32.24931,0,0,1-29.94238-44.22656Z" fill="#fea100" data-original="#000000" style=""/><path xmlns="http://www.w3.org/2000/svg" d="M320.0001,312V256a8.00039,8.00039,0,0,0-8-8h-80a8.00039,8.00039,0,0,0-8,8v56a48.07,48.07,0,0,0,40,47.32056V432h-16a24.0275,24.0275,0,0,0-24,24v16a8.00039,8.00039,0,0,0,8,8h80a8.00039,8.00039,0,0,0,8-8V456a24.0275,24.0275,0,0,0-24-24h-16V359.32056A48.07,48.07,0,0,0,320.0001,312Zm-16,144v8h-64v-8a8.00917,8.00917,0,0,1,8-8h48A8.00917,8.00917,0,0,1,304.0001,456Zm0-192v25.11816a31.02655,31.02655,0,0,0-33.26856.7793,15.16925,15.16925,0,0,1-15.16015.94434l-15.57129-7.78614V264Zm-64,48V300.94434l8.416,4.208A31.1985,31.1985,0,0,0,279.60654,303.21a15.09483,15.09483,0,0,1,16.78711,0l7.60645,5.07129V312a32,32,0,0,1-64,0Z" fill="#fea100" data-original="#000000" style=""/><path xmlns="http://www.w3.org/2000/svg" d="M448.0001,179.12207V120a24.0275,24.0275,0,0,0-24-24h-16a24.0275,24.0275,0,0,0-24,24v59.12207A91.75174,91.75174,0,0,1,361.92588,238.794a107.75759,107.75759,0,0,0-25.92578,70.084V456a24.0275,24.0275,0,0,0,24,24h112a24.0275,24.0275,0,0,0,24-24V308.87793a107.75759,107.75759,0,0,0-25.92578-70.084A91.75168,91.75168,0,0,1,448.0001,179.12207ZM408.0001,112h16a8.00917,8.00917,0,0,1,8,8v16h-32V120A8.00917,8.00917,0,0,1,408.0001,112ZM374.07432,249.20605a107.75759,107.75759,0,0,0,25.92578-70.084V152h32v27.12207a107.75759,107.75759,0,0,0,25.92578,70.084,91.74938,91.74938,0,0,1,20.52393,42.94825L416.0001,326.84863,353.55039,292.1543A91.74938,91.74938,0,0,1,374.07432,249.20605ZM472.0001,464h-112a8.00917,8.00917,0,0,1-8-8V309.5957l60.11523,33.39746a7.99786,7.99786,0,0,0,7.76953,0L480.0001,309.5957V456A8.00917,8.00917,0,0,1,472.0001,464Z" fill="#fea100" data-original="#000000" style=""/></g></svg>
