<?xml version="1.0"?>
<svg xmlns="http://www.w3.org/2000/svg" xmlns:xlink="http://www.w3.org/1999/xlink" xmlns:svgjs="http://svgjs.com/svgjs" version="1.1" width="512" height="512" x="0" y="0" viewBox="0 0 512.001 512.001" style="enable-background:new 0 0 512 512" xml:space="preserve" class=""><g>
<g xmlns="http://www.w3.org/2000/svg">
	<g>
		<g>
			<path d="M511.475,262.426c-2.004-25.389-13.417-48.943-32.137-66.323c-14.303-13.28-31.898-22.012-50.797-25.448     C421.682,75.404,342,0,245.029,0c-0.113,0-0.222,0.015-0.334,0.017C244.472,0.015,244.252,0,244.029,0     c-17.952,0-34.956,6.859-47.879,19.315c-7.953,7.666-8.187,20.327-0.521,28.28c7.667,7.953,20.328,8.186,28.279,0.521     C229.339,42.882,236.484,40,244.029,40c15.99,0,29,13.009,29,29c0,15.991-13.01,29-29,29c-0.348,0-0.687,0.034-1.03,0.052     c-21.165-0.117-34.069-3.754-46.537-7.281C184.699,87.442,172.533,84,156.029,84c-0.675,0-1.342,0.036-2,0.101     c-0.658-0.065-1.325-0.101-2-0.101c-51.79,0-93.924,42.134-93.924,93.924c0,12.516,2.49,24.611,7.067,35.724     c-36.457,4.753-64.709,35.989-64.709,73.721c0,41.743,35.652,68.804,71.034,74.094c0.222,0.042,0.52,0.098,0.875,0.165     c0.016,0.09,0.021,0.179,0.039,0.269l26.613,134c1.859,9.361,10.073,16.104,19.617,16.104c0.014,0,0,0,0.014,0h277.81h0.014     c9.58,0,17.815-6.794,19.636-16.199l25.549-132c0.383-1.978,0.452-3.942,0.257-5.848c4.438-1.237,8.81-2.525,13.1-3.872     c10.538-3.31,16.397-14.536,13.088-25.074c-3.311-10.539-14.537-16.396-25.074-13.088     c-54.801,17.213-118.182,22.675-176.583,22.673c-100.648-0.002-186.47-16.229-187.817-16.489     c-0.316-0.061-0.635-0.115-0.955-0.161c-18.494-2.661-37.217-15.391-37.217-34.573c0-18.951,15.418-34.369,34.369-34.369     c13.394,0,23.881,4.745,39.757,11.927C146.344,279.292,194.33,301,308.029,301c11.046,0,20-8.954,20-20c0-11.046-8.954-20-20-20     c-93.895,0-137.058-15.008-166.826-27.994c-1.947-1.787-4.278-3.22-6.933-4.145c-21.631-7.54-36.165-28.01-36.165-50.937     c0-29.734,24.19-53.924,53.924-53.924c0.675,0,1.342-0.036,2-0.101c0.658,0.065,1.325,0.101,2,0.101     c10.954,0,19.158,2.321,29.544,5.26c13.862,3.922,31.115,8.803,58.456,8.803c0.722,0,1.434-0.043,2.136-0.117     c37.06-1.135,66.864-31.615,66.864-68.946c0-4.274-0.411-8.453-1.158-12.514c41.789,21.994,71.517,63.925,76.436,113.064     c-18.14,1.051-34.48,3.451-50.411,5.791c-34.287,5.037-69.741,10.245-125.92,1.877c-10.928-1.632-21.102,5.91-22.729,16.835     s5.911,21.101,16.836,22.728c23.924,3.563,44.333,4.912,62.518,4.912c28.964,0,52.276-3.424,75.107-6.777     c20.715-3.042,40.28-5.917,63.321-5.917c0.551,0,1.092-0.039,1.631-0.082c0.54,0.044,1.081,0.082,1.631,0.082     c31.874,0,58.804,24.85,61.308,56.574c0.826,10.476,9.583,18.427,19.916,18.427c0.527,0,1.06-0.021,1.595-0.063     C504.122,283.069,512.344,273.438,511.475,262.426z M360.419,373.565c13.741-1.618,27.003-3.618,39.774-5.998L379.98,472h-30.586     L360.419,373.565z M278.029,378.643c14.303-0.169,28.222-0.66,41.737-1.48L309.144,472h-31.115V378.643z M202.234,376.709     c12.168,0.729,24.093,1.252,35.795,1.584V472h-29.115l-10.7-95.54C199.548,376.545,200.887,376.628,202.234,376.709z      M157.597,373.189L168.664,472H135.06l-20.614-103.8C126.771,369.855,141.328,371.604,157.597,373.189z" fill="#fea100" data-original="#000000" style="" class=""/>
			<path d="M394.553,253.304l-17,3c-10.878,1.92-18.14,12.294-16.22,23.171c1.712,9.703,10.15,16.528,19.672,16.528     c1.153,0,2.324-0.101,3.499-0.308l17-3c10.878-1.92,18.14-12.294,16.22-23.171C415.806,258.646,405.425,251.389,394.553,253.304z     " fill="#fea100" data-original="#000000" style="" class=""/>
		</g>
	</g>
</g>
<g xmlns="http://www.w3.org/2000/svg">
</g>
<g xmlns="http://www.w3.org/2000/svg">
</g>
<g xmlns="http://www.w3.org/2000/svg">
</g>
<g xmlns="http://www.w3.org/2000/svg">
</g>
<g xmlns="http://www.w3.org/2000/svg">
</g>
<g xmlns="http://www.w3.org/2000/svg">
</g>
<g xmlns="http://www.w3.org/2000/svg">
</g>
<g xmlns="http://www.w3.org/2000/svg">
</g>
<g xmlns="http://www.w3.org/2000/svg">
</g>
<g xmlns="http://www.w3.org/2000/svg">
</g>
<g xmlns="http://www.w3.org/2000/svg">
</g>
<g xmlns="http://www.w3.org/2000/svg">
</g>
<g xmlns="http://www.w3.org/2000/svg">
</g>
<g xmlns="http://www.w3.org/2000/svg">
</g>
<g xmlns="http://www.w3.org/2000/svg">
</g>
</g></svg>
